<svg width="64" height="64" viewBox="0 0 64 64" xmlns="http://www.w3.org/2000/svg">
  <rect width="64" height="64" rx="14" fill="#2ecc71"/>
  <g transform="translate(8, 8) scale(0.045)">
    <path d="M904.533333 128v85.333333c0 409.6-230.4 597.333333-512 597.333334h-82.488889c8.533333-128 48.355556-207.644444 153.6-298.666667 51.2-45.511111 48.355556-71.111111 22.755556-56.888889-173.511111 102.4-261.688889 244.622222-264.533333 466.488889v17.066667h-85.333334c0-56.888889 5.688889-110.933333 14.222223-159.288889-8.533333-54.044444-14.222222-130.844444-14.222223-224.711111 0-236.088889 190.577778-426.666667 426.666667-426.666667 85.333333 0 170.666667 42.666667 341.333333 0z" fill="#FFFFFF"/>
  </g>
</svg>
